<?xml version="1.0" encoding="UTF-8" standalone="no"?>
<svg width="286px" height="76px" viewBox="0 0 286 76" version="1.1" xmlns="http://www.w3.org/2000/svg" xmlns:xlink="http://www.w3.org/1999/xlink" xmlns:sketch="http://www.bohemiancoding.com/sketch/ns">
    <title>Untitled</title>
    <description>Created with Sketch (http://www.bohemiancoding.com/sketch)</description>
    <defs></defs>
    <g id="Page-1" stroke="none" stroke-width="1" fill="none" fill-rule="evenodd" sketch:type="MSPage">
        <g id="LinkedIn" sketch:type="MSLayerGroup">
            <g id="layer1" sketch:type="MSShapeGroup">
                <g id="g3019" transform="translate(143.000000, 38.000000) scale(1, -1) translate(-143.000000, -38.000000) ">
                    <path d="M211,70.5558332 C211,73.5617526 213.481336,76 216.542363,76 L280.457637,76 C283.518563,76 286,73.5617526 286,70.5558332 L286,5.44416681 C286,2.43723192 283.518563,0 280.457637,0 L216.542363,0 C213.481336,0 211,2.43723192 211,5.44416681 L211,70.5558332 L211,70.5558332 Z" id="path14" fill="#006699"></path>
                    <path d="M3.54863847e-15,12 L31,12 L31,22.3835884 L11.2185168,22.3835884 L11.2185168,62 L0,62 L0,12 L3.54863847e-15,12 Z" id="path16" fill="#000000"></path>
                    <path d="M48,12 L48,46 L37,46 L37,12 L48,12 L48,12 Z M42.4615719,51 C46.4916306,51 49,53.6667809 49,57.0015415 C48.924893,60.4082384 46.4916306,63 42.5384281,63 C38.5847111,63 36,60.4082384 36,57.0015415 C36,53.6667809 38.507855,51 42.3861562,51 L42.4612633,51 L42.4615719,51 Z" id="path18" fill="#000000"></path>
                    <path d="M53,12 L64.1382832,12 L64.1382832,31.0973487 C64.1382832,32.119409 64.2106709,33.1404574 64.5052789,33.8710787 C65.3099721,35.9121635 67.1425705,38.02712 70.2196421,38.02712 C74.2504462,38.02712 75.8628075,34.8901032 75.8628075,30.2958915 L75.8628075,12 L87,12 L87,31.6083789 C87,42.1123254 81.5044856,47 74.1763728,47 C68.1680958,47 65.5298125,43.5725562 64.0641106,41.2380085 L64.1384816,41.2380085 L64.1384816,46.1965189 L53.0001983,46.1965189 C53.1464611,42.9876543 53.0001983,12 53.0001983,12 L53,12 Z" id="path20" fill="#000000"></path>
                    <path d="M103.646059,62 L92,62 L92,12 L103.646059,12 L103.646059,23.1652365 L106.556511,26.7667285 L115.673861,12 L130,12 L114.678137,33.3776165 L128.085376,47.9221817 L114.065503,47.9221817 C114.065503,47.9221817 104.488962,34.9093207 103.646059,33.3664065 L103.646059,62 L103.646059,62 Z" id="path22" fill="#000000"></path>
                    <path d="M158.634193,25.8823673 C158.78014,26.7542555 159,28.4267137 159,30.317144 C159,39.0922764 154.612092,48 143.060218,48 C130.702914,48 125,38.0787566 125,29.0806298 C125,17.9509977 131.946085,11 144.083529,11 C148.909574,11 153.36902,11.7232252 157.025412,13.2440071 L155.562479,20.6952355 C152.565075,19.6857337 149.494153,19.181485 145.692408,19.181485 C140.501051,19.181485 135.968186,21.3441292 135.601982,25.9546898 L158.634193,25.8843763 L158.634193,25.8823673 Z M136,33 C136.288722,35.8282432 138.166683,40 142.861293,40 C147.843647,40 149,35.5448305 149,33 L136,33 L136,33 Z" id="path24" fill="#000000"></path>
                    <path d="M188.284443,62 L188.284443,44.6262837 L188.134548,44.6262837 C186.482136,47.0578265 183.027011,48.680219 178.447514,48.680219 C169.660567,48.680219 161.926143,41.6014321 162.000532,29.5091865 C162.000532,18.2997433 168.984765,11 177.695697,11 C182.426614,11 186.93223,13.0653281 189.185038,17.0476573 L189.410847,17.0476573 L189.861348,11.8111962 L200,11.8111962 C199.849596,14.244785 199.698277,18.4480704 199.698277,22.5766808 L199.698277,62 L188.284443,62 L188.284443,62 Z M189,27.8381949 C189,26.9600569 188.923361,26.0798862 188.769874,25.3481045 C188.082087,22.1973778 185.32607,20 181.95963,20 C177.137868,20 174,23.8093302 174,29.8170546 C174,35.4578717 176.679171,40 182.035544,40 C185.632006,40 188.158002,37.5830877 188.847239,34.5797337 C189,33.9190975 189,33.1862994 189,32.5276959 L189,27.8381949 L189,27.8381949 Z" id="path26" fill="#000000"></path>
                    <path d="M234,12 L234,46 L223,46 L223,12 L234,12 L234,12 Z M228.46152,51 C232.491611,51 235,53.6667809 235,56.9994862 C234.924892,60.4072108 232.491611,63 228.537965,63 C224.584732,63 222,60.4072108 222,56.9994862 C222,53.6667809 224.507875,51 228.386207,51 L228.461314,51 L228.46152,51 Z" id="path28" fill="#FFFFFF"></path>
                    <path d="M240,12 L251.138346,12 L251.138346,31.0973487 C251.138346,32.119409 251.210735,33.1404574 251.504852,33.8710787 C252.310052,35.9131755 254.142777,38.028132 257.219794,38.028132 C261.25026,38.028132 262.862546,34.8921271 262.862546,30.2948796 L262.862546,12 L274,12 L274,31.6083789 C274,42.1123254 268.504901,47 261.176682,47 C255.167821,47 252.529896,43.5725562 251.064272,41.2380085 L251.138644,41.2380085 L251.138644,46.1975309 L240.000297,46.1975309 C240.146463,42.9886663 240.000297,12 240.000297,12 L240,12 Z" id="path30" fill="#FFFFFF"></path>
                </g>
            </g>
        </g>
    </g>
</svg>